<svg xmlns="http://www.w3.org/2000/svg" width="24" height="24" viewBox="0 0 24 24" fill="currentColor">
  <path d="M24 4.557c-.883.392-1.832.656-2.828.775 1.017-.609 1.798-1.574 2.165-2.724-.951.564-2.005.974-3.127 1.195-.897-.957-2.178-1.555-3.594-1.555-3.179 0-5.515 2.966-4.797 6.045-4.091-.205-7.719-2.165-10.148-5.144-.422.724-.665 1.56-.665 2.452 0 1.942 1.093 3.555 2.614 4.493-.904-.027-1.705-.281-2.36-.664v.052c0 2.695 1.805 4.975 4.207 5.502-.422.116-.89.179-1.378.179-.334 0-.657-.032-.97-.093.722 2.24 2.799 3.909 5.306 3.955-1.864 1.475-4.209 2.309-6.762 2.309-.438 0-.875-.026-1.303-.077 2.389 1.564 5.256 2.438 8.354 2.438 10.139 0 15.792-8.568 15.488-16.133.999-.693 1.863-1.583 2.552-2.639z"/>
</svg>
